<?xml version="1.0" standalone="no"?>
<!DOCTYPE svg PUBLIC "-//W3C//DTD SVG 20010904//EN"
 "http://www.w3.org/TR/2001/REC-SVG-20010904/DTD/svg10.dtd">
<svg version="1.0" xmlns="http://www.w3.org/2000/svg"
 width="700.000000pt" height="700.000000pt" viewBox="0 0 700.000000 700.000000"
 preserveAspectRatio="xMidYMid meet">
<metadata>
Created by potrace 1.14, written by Peter Selinger 2001-2017
</metadata>
<g transform="translate(0.000000,700.000000) scale(0.100000,-0.100000)"
fill="#000000" stroke="none">
<path d="M3278 6995 c-1 -1 -42 -5 -89 -9 -47 -4 -95 -8 -105 -10 -10 -2 -41
-7 -69 -10 -428 -56 -875 -210 -1270 -439 -103 -60 -265 -165 -315 -204 -8 -6
-51 -40 -95 -74 -353 -275 -673 -651 -897 -1054 -49 -87 -148 -289 -148 -301
0 -2 -9 -23 -20 -47 -57 -123 -157 -435 -186 -582 -2 -11 -10 -54 -19 -95 -29
-147 -36 -200 -52 -370 -15 -165 -8 -592 12 -711 2 -13 6 -46 9 -74 9 -78 22
-152 51 -285 21 -96 91 -339 114 -395 5 -11 25 -65 46 -120 63 -166 249 -531
312 -610 4 -6 34 -49 65 -95 170 -255 433 -535 708 -755 92 -74 370 -265 386
-265 4 0 15 -6 23 -14 26 -22 298 -158 411 -205 267 -111 589 -200 859 -237
25 -3 57 -8 71 -10 163 -25 682 -25 842 1 13 2 46 7 73 10 71 10 87 13 115 18
14 3 43 8 65 12 22 4 76 16 120 27 44 10 87 21 96 23 25 5 157 45 219 65 178
57 568 235 660 300 15 11 33 20 39 20 6 0 11 5 11 10 0 6 5 10 10 10 15 0 220
141 330 227 152 118 324 280 450 422 36 41 70 79 76 85 6 6 48 61 94 121 150
197 277 405 383 628 26 53 47 99 47 102 0 2 11 28 24 57 57 127 151 421 182
573 17 81 54 301 59 350 4 33 9 71 11 85 9 46 11 524 4 605 -15 153 -21 210
-25 225 -2 8 -7 35 -10 60 -17 129 -80 384 -136 552 -323 963 -1056 1744
-1999 2131 -222 91 -558 185 -760 212 -19 3 -46 7 -60 10 -13 2 -52 7 -86 11
-33 3 -74 8 -90 10 -32 5 -540 14 -546 9z m507 -1069 c313 -28 504 -68 674
-140 285 -123 519 -343 656 -621 104 -209 141 -394 132 -665 -3 -91 -7 -174
-10 -185 -3 -11 -8 -40 -12 -65 -13 -87 -67 -256 -109 -346 -88 -186 -218
-345 -380 -467 -162 -122 -414 -212 -656 -234 -141 -13 -376 -8 -525 12 -108
15 -201 31 -285 51 -36 9 -80 18 -98 21 l-33 5 4 -864 c2 -474 6 -874 10 -888
3 -14 8 -46 11 -71 15 -119 56 -202 127 -260 55 -45 77 -57 142 -76 76 -22 88
-24 223 -26 l124 -1 0 -68 0 -68 -953 0 -954 0 1 67 1 68 124 2 c68 1 145 7
173 12 76 17 154 58 207 110 71 70 93 122 118 291 10 67 11 3750 1 3835 -24
205 -50 273 -131 339 -103 83 -186 104 -408 106 l-86 0 1 63 c0 34 3 64 7 67
11 7 1820 4 1904 -4z"/>
<path d="M3405 5625 c-97 -15 -111 -18 -197 -40 l-68 -17 0 -1032 0 -1033 68
-12 c253 -49 306 -55 442 -56 121 0 163 6 252 35 190 64 376 239 481 455 62
127 90 224 113 400 13 94 6 325 -12 418 -34 179 -66 277 -134 412 -64 127 -70
134 -170 236 -191 192 -482 280 -775 234z"/>
</g>
</svg>
